<svg height="139" width="944" xmlns="http://www.w3.org/2000/svg"><path d="m0 0c5.71832631 6.05469845 6.55826647 11.60895208 6.36328125 19.80859375-.23828125 2.44140625-.23828125 2.44140625-1.23828125 3.44140625-1.68608966.07205511-3.37500659.08386068-5.0625.0625-.91910156-.00902344-1.83820313-.01804687-2.78515625-.02734375-.71027344-.01160156-1.42054687-.02320312-2.15234375-.03515625-.08636719-.58007812-.17273438-1.16015625-.26171875-1.7578125-1.01702843-5.65430484-2.31360363-9.28822027-6.73828125-13.2421875-7.54368391-4.22013464-15.57968072-3.30619527-23.70703125-1.34765625-6.8697377 2.28991257-11.15444815 6.48024976-15.29296875 12.34765625-1.25050391 3.75151173-1.60634988 7.11048737-1 11 4.53060872 8.25218017 14.23407252 10.14189528 22.69238281 12.82128906 18.83311396 6.00489889 18.83311396 6.00489889 23.53027344 14.71386719 2.17638937 6.90101353 1.87802589 14.72898978-.91015625 21.40234375-.73128066 1.37592877-1.501059 2.73226886-2.3125 4.0625-.36222656.62390625-.72445312 1.2478125-1.09765625 1.890625-6.00117685 9.35776728-17.08888205 15.22357886-27.68505859 17.71679688-10.52275634 1.86309097-23.89145156 2.04760488-33.21728516-3.60742188-5.77506854-4.44722432-8.53028273-8.78182533-9.75-15.9375-.42188982-3.7684057.25588927-6.54694534 1.75-10.0625 1.64574566-.02688151 3.29161413-.04634123 4.9375-.0625.91652344-.01160156 1.83304688-.02320312 2.77734375-.03515625 2.28515625.09765625 2.28515625.09765625 3.28515625 1.09765625.26921577 1.58017952.51543007 3.16430728.75 4.75.93718395 4.82374094 2.16227814 7.27711137 6.25 10.25 8.86014294 3.60826111 19.56323207 3.35978079 28.5.0625 6.94114667-3.32872429 11.63800757-8.33851515 15.0625-15.1875.56456479-3.7099972.49130648-6.25254022-.5625-9.875-5.96122939-6.76680093-15.37896453-9.2034042-23.74121094-11.82421875-8.85545314-2.79037861-17.0068592-6.07905605-22.25878906-14.17578125-2.45858157-7.37574472-1.66263959-15.54153745 1.55078125-22.5546875 6.11068283-10.31074784 15.7229289-17.89503056 27.3515625-20.97265625 12.61222516-1.92443789 23.94819885-1.43319553 34.97265625 5.27734375z" fill="#f3f3f3" transform="translate(80.875 6.75)"/><path d="m0 0c8.05383362 7.14759463 12.68568326 16.312879 14 27 .8048229 15.38449926-.46935379 30.4372967-11.22265625 42.39453125-7.5639148 6.8324593-15.36845417 7.97494435-25.2265625 7.8828125-6.63250145-.51805017-11.31732911-2.86232409-16.11328125-7.40234375-2.4375-2.875-2.4375-2.875-2.4375-4.875-.66 0-1.32 0-2 0 .00523682 1.17618896.01047363 2.35237793.01586914 3.56420898.01804749 4.34781133.02956194 8.69561932.0390625 13.04345704.0050408 1.88477128.01187334 3.76953863.02050781 5.65429687.01207672 2.70305347.01779123 5.40605542.0222168 8.10913086.00516129.84791611.01032257 1.69583221.01564026 2.56944275.00019544 2.02017418-.0512344 4.04024284-.11329651 6.0594635-1 1-1 1-3.03125 1.1328125-.8146875-.00257813-1.629375-.00515625-2.46875-.0078125-.8146875.00257813-1.629375.00515625-2.46875.0078125-2.03125-.1328125-2.03125-.1328125-3.03125-1.1328125-.09762523-1.4017833-.12631658-2.80844453-.12698364-4.21362305-.00281983-.90865814-.00563965-1.81731628-.00854492-2.75350952.00202423-1.00471344.00404846-2.00942688.00613403-3.04458618-.00175232-1.05192535-.00350464-2.10385071-.00531006-3.18765259-.00442084-3.4960594-.0014797-6.99206869.00189209-10.48812866-.00067297-2.41756195-.00164294-4.83512383-.00289917-7.25268555-.00147729-5.07430666.00067858-10.14859576.00534058-15.22290039.00569729-6.52076109.00241846-13.04148102-.00357247-19.5622406-.00360477-4.99436252-.00246741-9.9887152.00012779-14.983078.00066951-2.40509038-.00015995-4.81018164-.00247955-7.215271-.00252516-3.35489281.00131215-6.70971796.00690079-10.06460571-.00202423-1.00471344-.00404846-2.00942688-.00613403-3.04458618.00422973-1.36298721.00422973-1.36298721.00854492-2.75350952.00037702-.79420853.00075405-1.58841706.0011425-2.40669251.12584114-1.80693054.12584114-1.80693054 1.12584114-2.80693054 1.49738124-.0979057 2.99942892-.12974864 4.5-.125.8146875-.00257812 1.629375-.00515625 2.46875-.0078125 2.03125.1328125 2.03125.1328125 3.03125 1.1328125.07205511 1.68608966.08386068 3.37500659.0625 5.0625-.00902344.91910156-.01804687 1.83820312-.02734375 2.78515625-.01160156.71027344-.02320313 1.42054687-.03515625 2.15234375.680625-.721875 1.36125-1.44375 2.0625-2.1875 11.11667286-10.96097716 27.90715155-14.12304137 40.9375-3.8125zm-33 9c-.50917969.474375-1.01835937.94875-1.54296875 1.4375-7.45354251 7.65598441-9.05657587 16.98072149-8.9296875 27.2824707.40297694 9.78861641 3.67205048 18.12797104 10.47265625 25.2800293 5.21593024 3.84985328 10.56525345 4.81896774 17 4 7.13739776-2.21874163 11.63267031-6.77208532 15.22265625-13.18359375 4.48931667-9.79926111 5.17440123-21.57478246 1.77734375-31.81640625-2.888964-7.39618227-5.99882794-11.91393759-12.78515625-16.1015625-6.91915246-2.80671087-15.79907279-2.05002451-21.21484375 3.1015625z" fill="#f3f3f3" transform="translate(304 33)"/><path d="m0 0c6.21411953 5.04969268 9.39755583 10.67576282 10.73046875 18.5234375.08868432 1.92650211.12785786 3.85563803.12939453 5.78417969.00315216 1.13757751.00630432 2.27515503.009552 3.44720459-.00202423 1.21786194-.00404846 2.43572387-.00613403 3.69049072.00095673 1.25572815.00191345 2.5114563.00289917 3.80523682.00067975 2.64942901-.00065686 5.2987654-.00534058 7.94818115-.00572027 3.4020288-.00239951 6.80397911.00357247 10.2060051.00446997 3.24269519.00134707 6.48538072-.00113106 9.72807693.00202423 1.22595886.00404846 2.45191772.00613403 3.71502686-.00472824 1.6874533-.00472824 1.6874533-.009552 3.40899658-.00079559.99529724-.00159119 1.99059448-.00241089 3.01605224-.12698364 2.25054932-.12698364 2.25054932-1.12698364 3.25054932-1.49738124.0979057-2.99942892.12974864-4.5.125-.8146875.00257812-1.629375.00515625-2.46875.0078125-2.03125-.1328125-2.03125-.1328125-3.03125-1.1328125-.10207237-1.64008527-.13569732-3.28448738-.1418457-4.92773438-.00703446-1.05199584-.01406891-2.10399169-.02131653-3.18786621-.00416428-1.1477893-.00832855-2.29557861-.01261902-3.47814941-.02321338-2.41667523-.04733131-4.83334191-.07226562-7.25-.03502006-3.82036932-.06439729-7.64042775-.07788086-11.4609375-.01554086-3.68007546-.05581116-7.35923179-.09985352-11.0390625.00190842-1.13159546.00381683-2.26319092.00578308-3.42907715-.11259854-7.35510892-.79771425-14.55445533-6.33557129-19.93188476-4.69029612-3.65072042-9.54230236-3.9806121-15.33818054-3.71716309-5.58199182.81028913-9.32023416 2.83585916-13.28125 6.796875-4.12380747 6.66153514-3.94699948 13.15951987-4.00390625 20.76953125-.01699448 1.16552902-.03398895 2.33105804-.05149841 3.53190613-.05301765 3.7119663-.09339966 7.42392154-.13209534 11.13606262-.04388164 3.72993908-.09049326 7.45979039-.14280701 11.18962097-.03204381 2.31919756-.05890648 4.6384733-.08023071 6.95779419-.01348984 1.04165817-.02697968 2.08331635-.0408783 3.15653992-.00951187.92122146-.01902374 1.84244293-.02882385 2.7915802-.14476013 2.09196472-.14476013 2.09196472-1.14476013 3.09196472-1.49738124.0979057-2.99942892.12974864-4.5.125-.8146875.00257812-1.629375.00515625-2.46875.0078125-2.03125-.1328125-2.03125-.1328125-3.03125-1.1328125-.10029857-2.42857035-.13618425-4.82871613-.12939453-7.2578125-.00175232-.75931824-.00350464-1.51863647-.00531006-2.30096436-.00441871-2.5220973-.00148047-5.04412507.00189209-7.56622314-.00067303-1.74495456-.00164305-3.48990904-.00289917-5.23486328-.001477-3.66195567.00067764-7.323887.00534058-10.98583984.00569729-4.7047418.00241829-9.40942656-.00357247-14.11416626-.00360556-3.60466953-.00246705-7.20932544.00012779-10.81399537.00066929-1.73522956-.00015919-3.47046034-.00247955-5.20568847-.00252645-2.42091165.00131394-4.84172964.00690079-7.26263428-.00202423-.72419128-.00404846-1.44838257-.00613403-2.19451904.0212659-4.9490308.0212659-4.9490308 1.13552856-6.06329346 1.49738124-.0979057 2.99942892-.12974864 4.5-.125.8146875-.00257812 1.629375-.00515625 2.46875-.0078125 2.03125.1328125 2.03125.1328125 3.03125 1.1328125.14115161 2.67058851.04247107 5.32432238 0 8 .53367187-.47050781 1.06734375-.94101562 1.6171875-1.42578125 11.04142796-9.22666039 25.92733309-12.37657885 38.65234375-4.09765625z" fill="#f3f3f3" transform="translate(154.269531 31.476563)"/><path d="m0 0c-1.12980414 3.38941243-1.6592323 3.7220066-4.53369141 5.59008789-.75630706.49740692-1.51261413.99481384-2.2918396 1.5072937-.83359039.53634064-1.66718078 1.07268128-2.52603149 1.62527466-1.30585556.8538176-1.30585556.8538176-2.63809204 1.72488403-1.88734511 1.23298616-3.77700234 2.46243865-5.66867066 3.68878174-2.97749046 1.93320028-5.94540451 3.88032132-8.91101074 5.83169556-9.02901098 5.93444761-18.07866613 11.83022767-27.21432495 17.59944153-3.6394638 2.30426062-7.26189326 4.6344416-10.88204956 6.96888733-1.71669486 1.0968302-3.44171182 2.18074741-5.17492676 3.25128173-2.41316209 1.49155465-4.79517957 3.02380923-7.17498779 4.56784058-.71346588.42507843-1.42693176.85015686-2.16201782 1.28811646-2.00710213 1.33906763-3.41688615 2.3906763-4.82235718 4.35641479-.56738377 3.41434464-.30980477 6.57160426 0 10-.90963947 6.47143505-3.1454582 11.2277821-8.046875 15.59375-4.71816159 3.39707635-9.93642665 5.09777059-15.8125 4.80859375-5.54228761-1.04170734-10.36012553-3.34847467-14.07421875-7.6328125-4.2121194-6.19191653-5.90639971-11.28263301-5.06640625-18.76953125 1.8892042-6.53399923 6.2400181-11.49392406 12-15 7.32760383-2.72353417 12.98925218-2.12176696 20 1 .73347656.46277344 1.46695313.92554688 2.22265625 1.40234375 3.90621988.84057896 5.7343325-.54895201 9.05859375-2.5793457.7528125-.49846436 1.505625-.99692871 2.28125-1.51049805.77214844-.50168701 1.54429687-1.00337402 2.33984375-1.52026367 5.37553575-3.72765039 7.74633857-6.6904455 9.16113281-13.19555664 1.10753668-3.07084467 1.99413602-3.79105004 4.73730469-5.47949219.81098145-.50217041 1.62196289-1.00434082 2.45751953-1.52172852 40.54736104-23.59545898 40.54736104-23.59545898 62.74169922-23.59545898zm-116 58c-2.74637397 4.41112805-2.67014565 8.95756262-2 14 2.14134071 3.67086979 4.15088259 5.36147662 8 7 3.99539131.76806044 7.53605023.86098715 11.10546875-1.23828125 4.28112678-3.55730741 5.6681778-5.82154633 6.33203125-11.51171875-.0330678-4.47242033-1.87997165-6.70245693-4.83203125-9.90234375-3.12231826-2.62092409-6.58493602-2.68378651-10.5390625-2.6328125-3.41980881.47192069-5.49300095 2.07938027-8.06640625 4.28515625z" fill="#d3b2a4" transform="translate(499 14)"/><path d="m0 0c5.63916387 3.14357116 8.70299675 6.35230706 10.5234375 12.5859375 1.13996766 5.4037428 1.42401355 9.96303277.2265625 15.3515625l2.375.875c2.625 1.125 2.625 1.125 4.625 3.125-.45454545 5.45454545-.45454545 5.45454545-3 8-2.7300433-.28241827-4.16299881-1.11284533-6.4375-2.6875-2.48444903-1.63673396-2.48444903-1.63673396-5.0625-.625-.825.433125-1.65.86625-2.5 1.3125-6.44270938 2.99558453-13.54422805 3.04325191-20.3125 1-5.5095848-4.10015613-10.38766994-9.06757303-11.6875-16-.83072953-7.1205388 1.13598055-12.00704421 5-18 7.36739487-7.56127368 16.83393187-9.17682933 26.25-4.9375zm-20.6875 11c-2.29243443 4.30977674-2.20051565 8.15632099-1.5625 12.9375 1.38101199 3.60597575 2.5313733 4.6911324 5.75 6.8125 4.67854386 1.70946795 8.29592704 2.00548403 12.9375.0625 3.36862023-2.7313137 5.8352502-5.45982678 6.69921875-9.83203125.20530285-3.70253078-.337096-5.93338519-1.88671875-9.35546875-3.12562834-3.36005047-6.09575418-4.60073805-10.5-5.6875-4.44010195 0-8.15751341 2.28712673-11.4375 5.0625z" fill="#d3b2a4" transform="translate(403.25 10.0625)"/><path d="m0 0c.8146875.00257812 1.629375.00515625 2.46875.0078125.8146875-.00257812 1.629375-.00515625 2.46875-.0078125 2.03125.1328125 2.03125.1328125 3.03125 1.1328125.10029857 2.42857035.13618425 4.82871613.12939453 7.2578125.00175232.75931824.00350464 1.51863647.00531006 2.30096436.00441871 2.5220973.00148047 5.04412507-.00189209 7.56622314.00067303 1.74495456.00164305 3.48990904.00289917 5.23486328.001477 3.66195567-.00067764 7.323887-.00534058 10.98583984-.00569729 4.7047418-.00241829 9.40942656.00357247 14.11416626.00360556 3.60466953.00246705 7.20932544-.00012779 10.81399537-.00066929 1.73522956.00015919 3.47046034.00247955 5.20568847.00252645 2.42091165-.00131394 4.84172964-.00690079 7.26263428.00202423.72419128.00404846 1.44838257.00613403 2.19451904-.0212659 4.9490308-.0212659 4.9490308-1.13552856 6.06329346-1.49738124.0979057-2.99942892.12974864-4.5.125-.8146875.00257812-1.629375.00515625-2.46875.0078125-2.03125-.1328125-2.03125-.1328125-3.03125-1.1328125-.10029857-2.42857035-.13618425-4.82871613-.12939453-7.2578125-.00175232-.75931824-.00350464-1.51863647-.00531006-2.30096436-.00441871-2.5220973-.00148047-5.04412507.00189209-7.56622314-.00067303-1.74495456-.00164305-3.48990904-.00289917-5.23486328-.001477-3.66195567.00067764-7.323887.00534058-10.98583984.00569729-4.7047418.00241829-9.40942656-.00357247-14.11416626-.00360556-3.60466953-.00246705-7.20932544.00012779-10.81399537.00066929-1.73522956-.00015919-3.47046034-.00247955-5.20568847-.00252645-2.42091165.00131394-4.84172964.00690079-7.26263428-.00202423-.72419128-.00404846-1.44838257-.00613403-2.19451904.02574206-5.9907305.02574206-5.9907305 3.16677856-6.19610596z" fill="#f4f4f4" transform="translate(205.03125 27.867188)"/><path d="m0 0c2.5103518 1.22851126 4.7981393 2.55805902 7.13258362 4.09286499.86762466.56753998 1.73524933 1.13507996 2.62916565 1.71981812.92409164.61146881 1.84818329 1.22293762 2.80027771 1.85293579.96006454.63136871 1.92012909 1.26273742 2.9092865 1.91323852 2.02625547 1.33430786 4.05100825 2.67090011 6.07435608 4.00961304 3.09404299 2.04567238 6.19446829 4.08138817 9.29565429 6.11621094 1.96979359 1.29888405 3.93920754 2.59834405 5.90820313 3.8984375.92611587.60742035 1.85223175 1.21484069 2.80641174 1.84066772.8644725.5738443 1.72894501 1.1476886 2.61961365 1.73892212.7576918.50026703 1.5153836 1.00053406 2.29603576 1.51596069 2.26629391 1.67850521 4.1733506 3.53038007 6.1177826 5.56851197-6.36604804 3.18302402-20.50292557-1.92271845-26.9375-4.0625-9.08121886-3.49115382-17.56060449-8.24180589-26.0625-12.9375-1.29295609-.69924218-2.58592379-1.39846286-3.87890625-2.09765625-6.15401296-3.42212527-6.15401296-3.42212527-8.12109375-4.90234375 0-.99 0-1.98 0-3 2.44921875-2.11328125 2.44921875-2.11328125 5.6875-4.3125 1.05574219-.73863282 2.11148437-1.47726563 3.19921875-2.23828125 3.11328125-1.44921875 3.11328125-1.44921875 5.52391052-.71640015z" fill="#d3b2a4" transform="translate(448.410629 60.732819)"/><path d="m0 0c1.875 1.125 1.875 1.125 3 3 .49125459 3.85985753.56021138 6.08965651-1.5 9.4375-3.74892004 2.34307502-6.11035762 2.05023804-10.5 1.5625-2-1-2-1-3-3-.53121937-3.6426471-.79901654-6.82049939 1.3125-9.9375 3.79612913-2.39015538 6.46652074-2.11774482 10.6875-1.0625z" fill="#f3f3f3" transform="translate(212 1)"/><path d="m0 0h7c1.0326802 2.78823655 1.04509293 3.8677274.0625 6.75-.350625.7425-.70125 1.485-1.0625 2.25-2.64 0-5.28 0-8 0-.33-.66-.66-1.32-1-2 .93578995-2.35981813 1.93347808-4.69631264 3-7z" fill="#f4f4f4" transform="translate(587 98)"/><path d="m0 0h7c1.0326802 2.78823655 1.04509293 3.8677274.0625 6.75-.350625.7425-.70125 1.485-1.0625 2.25-2.64 0-5.28 0-8 0-.33-.66-.66-1.32-1-2 .93578995-2.35981813 1.93347808-4.69631264 3-7z" fill="#f4f3f3" transform="translate(571 98)"/><path d="m0 0h7c1.0326802 2.78823655 1.04509293 3.8677274.0625 6.75-.350625.7425-.70125 1.485-1.0625 2.25-2.64 0-5.28 0-8 0-.33-.66-.66-1.32-1-2 .93578995-2.35981813 1.93347808-4.69631264 3-7z" fill="#f4f4f4" transform="translate(555 98)"/><path d="m0 0h7c1.0326802 2.78823655 1.04509293 3.8677274.0625 6.75-.350625.7425-.70125 1.485-1.0625 2.25-2.64 0-5.28 0-8 0-.33-.66-.66-1.32-1-2 .93578995-2.35981813 1.93347808-4.69631264 3-7z" fill="#f4f4f4" transform="translate(611 66)"/><path d="m0 0h7c1.0326802 2.78823655 1.04509293 3.8677274.0625 6.75-.350625.7425-.70125 1.485-1.0625 2.25-2.64 0-5.28 0-8 0-.33-.66-.66-1.32-1-2 .93578995-2.35981813 1.93347808-4.69631264 3-7z" fill="#f4f4f3" transform="translate(599 50)"/><path d="m0 0h7c1.0326802 2.78823655 1.04509293 3.8677274.0625 6.75-.350625.7425-.70125 1.485-1.0625 2.25-2.64 0-5.28 0-8 0-.33-.66-.66-1.32-1-2 .93578995-2.35981813 1.93347808-4.69631264 3-7z" fill="#f3f3f3" transform="translate(583 50)"/><path d="m0 0h7c1.0326802 2.78823655 1.04509293 3.8677274.0625 6.75-.350625.7425-.70125 1.485-1.0625 2.25-2.64 0-5.28 0-8 0-.33-.66-.66-1.32-1-2 .93578995-2.35981813 1.93347808-4.69631264 3-7z" fill="#f3f3f3" transform="translate(567 50)"/><path d="m0 0h7c1.0326802 2.78823655 1.04509293 3.8677274.0625 6.75-.350625.7425-.70125 1.485-1.0625 2.25-2.64 0-5.28 0-8 0-.33-.66-.66-1.32-1-2 .93578995-2.35981813 1.93347808-4.69631264 3-7z" fill="#f3f3f3" transform="translate(555 34)"/><path d="m0 0h7c1.0326802 2.78823655 1.04509293 3.8677274.0625 6.75-.350625.7425-.70125 1.485-1.0625 2.25-2.64 0-5.28 0-8 0-.33-.66-.66-1.32-1-2 .93578995-2.35981813 1.93347808-4.69631264 3-7z" fill="#f3f3f3" transform="translate(623 18)"/><path d="m0 0h7c1.0326802 2.78823655 1.04509293 3.8677274.0625 6.75-.350625.7425-.70125 1.485-1.0625 2.25-2.64 0-5.28 0-8 0-.33-.66-.66-1.32-1-2 .93578995-2.35981813 1.93347808-4.69631264 3-7z" fill="#f4f4f4" transform="translate(559 18)"/><path d="m0 0h7c1.0326802 2.78823655 1.04509293 3.8677274.0625 6.75-.350625.7425-.70125 1.485-1.0625 2.25-2.64 0-5.28 0-8 0-.33-.66-.66-1.32-1-2 .93578995-2.35981813 1.93347808-4.69631264 3-7z" fill="#f4f4f4" transform="translate(611 2)"/><path d="m0 0h7c1.0326802 2.78823655 1.04509293 3.8677274.0625 6.75-.350625.7425-.70125 1.485-1.0625 2.25-2.64 0-5.28 0-8 0-.33-.66-.66-1.32-1-2 .93578995-2.35981813 1.93347808-4.69631264 3-7z" fill="#f3f3f3" transform="translate(595 2)"/><path d="m0 0h7c1.0326802 2.78823655 1.04509293 3.8677274.0625 6.75-.350625.7425-.70125 1.485-1.0625 2.25-2.64 0-5.28 0-8 0-.33-.66-.66-1.32-1-2 .93578995-2.35981813 1.93347808-4.69631264 3-7z" fill="#f4f4f4" transform="translate(579 2)"/><path d="m0 0c3.625-.1875 3.625-.1875 7 0 1.0326802 2.78823655 1.04509293 3.8677274.0625 6.75-.350625.7425-.70125 1.485-1.0625 2.25-2.64 0-5.28 0-8 0-.25-5.625-.25-5.625 2-9z" fill="#f4f4f4" transform="translate(607 82)"/><path d="m0 0c3.625-.1875 3.625-.1875 7 0 1.0326802 2.78823655 1.04509293 3.8677274.0625 6.75-.350625.7425-.70125 1.485-1.0625 2.25-2.64 0-5.28 0-8 0-.25-5.625-.25-5.625 2-9z" fill="#f3f3f3" transform="translate(543 82)"/><path d="m0 0c3.5.125 3.5.125 4.5 1.125.125 3.5.125 3.5 0 7-1 1-1 1-4.5 1.125-3.5-.125-3.5-.125-4.5-1.125-.125-3.5-.125-3.5 0-7 1-1 1-1 4.5-1.125z" fill="#f3f3f3" transform="translate(875.5 129.875)"/><path d="m0 0c3.5.125 3.5.125 4.5 1.125.125 3.5.125 3.5 0 7-1 1-1 1-4.5 1.125-3.5-.125-3.5-.125-4.5-1.125-.125-3.5-.125-3.5 0-7 1-1 1-1 4.5-1.125z" fill="#f4f4f4" transform="translate(875.5 113.875)"/><path d="m0 0c3.5.125 3.5.125 4.5 1.125.125 3.5.125 3.5 0 7-1 1-1 1-4.5 1.125-3.5-.125-3.5-.125-4.5-1.125-.125-3.5-.125-3.5 0-7 1-1 1-1 4.5-1.125z" fill="#f1f1f1" transform="translate(811.5 97.875)"/><path d="m0 0c3.5.125 3.5.125 4.5 1.125.125 3.5.125 3.5 0 7-1 1-1 1-4.5 1.125-3.5-.125-3.5-.125-4.5-1.125-.125-3.5-.125-3.5 0-7 1-1 1-1 4.5-1.125z" fill="#f2f2f2" transform="translate(923.5 97.875)"/><path d="m0 0c3.5.125 3.5.125 4.5 1.125.125 3.5.125 3.5 0 7-1 1-1 1-4.5 1.125-3.5-.125-3.5-.125-4.5-1.125-.125-3.5-.125-3.5 0-7 1-1 1-1 4.5-1.125z" fill="#f3f3f3" transform="translate(907.5 97.875)"/><path d="m0 0c3.5.125 3.5.125 4.5 1.125.125 3.5.125 3.5 0 7-1 1-1 1-4.5 1.125-3.5-.125-3.5-.125-4.5-1.125-.125-3.5-.125-3.5 0-7 1-1 1-1 4.5-1.125z" fill="#f4f4f4" transform="translate(875.5 97.875)"/><path d="m0 0c3.5.125 3.5.125 4.5 1.125.125 3.5.125 3.5 0 7-1 1-1 1-4.5 1.125-3.5-.125-3.5-.125-4.5-1.125-.125-3.5-.125-3.5 0-7 1-1 1-1 4.5-1.125z" fill="#f3f3f3" transform="translate(795.5 97.875)"/><path d="m0 0c3.5.125 3.5.125 4.5 1.125.125 3.5.125 3.5 0 7-1 1-1 1-4.5 1.125-3.5-.125-3.5-.125-4.5-1.125-.125-3.5-.125-3.5 0-7 1-1 1-1 4.5-1.125z" fill="#f3f3f3" transform="translate(779.5 97.875)"/><path d="m0 0c3.5.125 3.5.125 4.5 1.125.125 3.5.125 3.5 0 7-1 1-1 1-4.5 1.125-3.5-.125-3.5-.125-4.5-1.125-.125-3.5-.125-3.5 0-7 1-1 1-1 4.5-1.125z" fill="#f2f2f2" transform="translate(715.5 97.875)"/><path d="m0 0c3.5.125 3.5.125 4.5 1.125.125 3.5.125 3.5 0 7-1 1-1 1-4.5 1.125-3.5-.125-3.5-.125-4.5-1.125-.125-3.5-.125-3.5 0-7 1-1 1-1 4.5-1.125z" fill="#f3f3f3" transform="translate(651.5 97.875)"/><path d="m0 0c3.5.125 3.5.125 4.5 1.125.125 3.5.125 3.5 0 7-1 1-1 1-4.5 1.125-3.5-.125-3.5-.125-4.5-1.125-.125-3.5-.125-3.5 0-7 1-1 1-1 4.5-1.125z" fill="#f3f3f3" transform="translate(939.5 81.875)"/><path d="m0 0c3.5.125 3.5.125 4.5 1.125.125 3.5.125 3.5 0 7-1 1-1 1-4.5 1.125-3.5-.125-3.5-.125-4.5-1.125-.125-3.5-.125-3.5 0-7 1-1 1-1 4.5-1.125z" fill="#f4f4f4" transform="translate(891.5 81.875)"/><path d="m0 0c3.5.125 3.5.125 4.5 1.125.125 3.5.125 3.5 0 7-1 1-1 1-4.5 1.125-3.5-.125-3.5-.125-4.5-1.125-.125-3.5-.125-3.5 0-7 1-1 1-1 4.5-1.125z" fill="#f4f4f4" transform="translate(875.5 81.875)"/><path d="m0 0c3.5.125 3.5.125 4.5 1.125.125 3.5.125 3.5 0 7-1 1-1 1-4.5 1.125-3.5-.125-3.5-.125-4.5-1.125-.125-3.5-.125-3.5 0-7 1-1 1-1 4.5-1.125z" fill="#f3f3f3" transform="translate(795.5 81.875)"/><path d="m0 0c3.5.125 3.5.125 4.5 1.125.125 3.5.125 3.5 0 7-1 1-1 1-4.5 1.125-3.5-.125-3.5-.125-4.5-1.125-.125-3.5-.125-3.5 0-7 1-1 1-1 4.5-1.125z" fill="#f3f3f3" transform="translate(715.5 81.875)"/><path d="m0 0c3.5.125 3.5.125 4.5 1.125.125 3.5.125 3.5 0 7-1 1-1 1-4.5 1.125-3.5-.125-3.5-.125-4.5-1.125-.125-3.5-.125-3.5 0-7 1-1 1-1 4.5-1.125z" fill="#f3f3f3" transform="translate(651.5 81.875)"/><path d="m0 0c3.5.125 3.5.125 4.5 1.125.125 3.5.125 3.5 0 7-1 1-1 1-4.5 1.125-3.5-.125-3.5-.125-4.5-1.125-.125-3.5-.125-3.5 0-7 1-1 1-1 4.5-1.125z" fill="#f1f1f1" transform="translate(939.5 65.875)"/><path d="m0 0c3.5.125 3.5.125 4.5 1.125.125 3.5.125 3.5 0 7-1 1-1 1-4.5 1.125-3.5-.125-3.5-.125-4.5-1.125-.125-3.5-.125-3.5 0-7 1-1 1-1 4.5-1.125z" fill="#f3f3f3" transform="translate(875.5 65.875)"/><path d="m0 0c3.5.125 3.5.125 4.5 1.125.125 3.5.125 3.5 0 7-1 1-1 1-4.5 1.125-3.5-.125-3.5-.125-4.5-1.125-.125-3.5-.125-3.5 0-7 1-1 1-1 4.5-1.125z" fill="#f3f3f3" transform="translate(795.5 65.875)"/><path d="m0 0c3.5.125 3.5.125 4.5 1.125.125 3.5.125 3.5 0 7-1 1-1 1-4.5 1.125-3.5-.125-3.5-.125-4.5-1.125-.125-3.5-.125-3.5 0-7 1-1 1-1 4.5-1.125z" fill="#f3f3f3" transform="translate(715.5 65.875)"/><path d="m0 0c3.5.125 3.5.125 4.5 1.125.125 3.5.125 3.5 0 7-1 1-1 1-4.5 1.125-3.5-.125-3.5-.125-4.5-1.125-.125-3.5-.125-3.5 0-7 1-1 1-1 4.5-1.125z" fill="#f4f4f4" transform="translate(651.5 65.875)"/><g fill="#f3f3f3"><path d="m0 0c3.5.125 3.5.125 4.5 1.125.125 3.5.125 3.5 0 7-1 1-1 1-4.5 1.125-3.5-.125-3.5-.125-4.5-1.125-.125-3.5-.125-3.5 0-7 1-1 1-1 4.5-1.125z" transform="translate(939.5 49.875)"/><path d="m0 0c3.5.125 3.5.125 4.5 1.125.125 3.5.125 3.5 0 7-1 1-1 1-4.5 1.125-3.5-.125-3.5-.125-4.5-1.125-.125-3.5-.125-3.5 0-7 1-1 1-1 4.5-1.125z" transform="translate(891.5 49.875)"/><path d="m0 0c3.5.125 3.5.125 4.5 1.125.125 3.5.125 3.5 0 7-1 1-1 1-4.5 1.125-3.5-.125-3.5-.125-4.5-1.125-.125-3.5-.125-3.5 0-7 1-1 1-1 4.5-1.125z" transform="translate(875.5 49.875)"/><path d="m0 0c3.5.125 3.5.125 4.5 1.125.125 3.5.125 3.5 0 7-1 1-1 1-4.5 1.125-3.5-.125-3.5-.125-4.5-1.125-.125-3.5-.125-3.5 0-7 1-1 1-1 4.5-1.125z" transform="translate(795.5 49.875)"/><path d="m0 0c3.5.125 3.5.125 4.5 1.125.125 3.5.125 3.5 0 7-1 1-1 1-4.5 1.125-3.5-.125-3.5-.125-4.5-1.125-.125-3.5-.125-3.5 0-7 1-1 1-1 4.5-1.125z" transform="translate(715.5 49.875)"/><path d="m0 0c3.5.125 3.5.125 4.5 1.125.125 3.5.125 3.5 0 7-1 1-1 1-4.5 1.125-3.5-.125-3.5-.125-4.5-1.125-.125-3.5-.125-3.5 0-7 1-1 1-1 4.5-1.125z" transform="translate(667.5 49.875)"/></g><path d="m0 0c3.5.125 3.5.125 4.5 1.125.125 3.5.125 3.5 0 7-1 1-1 1-4.5 1.125-3.5-.125-3.5-.125-4.5-1.125-.125-3.5-.125-3.5 0-7 1-1 1-1 4.5-1.125z" fill="#f4f4f4" transform="translate(651.5 49.875)"/><path d="m0 0c3.5.125 3.5.125 4.5 1.125.125 3.5.125 3.5 0 7-1 1-1 1-4.5 1.125-3.5-.125-3.5-.125-4.5-1.125-.125-3.5-.125-3.5 0-7 1-1 1-1 4.5-1.125z" fill="#f3f3f3" transform="translate(907.5 33.875)"/><path d="m0 0c3.5.125 3.5.125 4.5 1.125.125 3.5.125 3.5 0 7-1 1-1 1-4.5 1.125-3.5-.125-3.5-.125-4.5-1.125-.125-3.5-.125-3.5 0-7 1-1 1-1 4.5-1.125z" fill="#eee" transform="translate(779.5 33.875)"/><path d="m0 0c3.5.125 3.5.125 4.5 1.125.125 3.5.125 3.5 0 7-1 1-1 1-4.5 1.125-3.5-.125-3.5-.125-4.5-1.125-.125-3.5-.125-3.5 0-7 1-1 1-1 4.5-1.125z" fill="#f2f2f2" transform="translate(683.5 33.875)"/><path d="m0 0c3.5.125 3.5.125 4.5 1.125.125 3.5.125 3.5 0 7-1 1-1 1-4.5 1.125-3.5-.125-3.5-.125-4.5-1.125-.125-3.5-.125-3.5 0-7 1-1 1-1 4.5-1.125z" fill="#f3f3f3" transform="translate(923.5 33.875)"/><path d="m0 0c3.5.125 3.5.125 4.5 1.125.125 3.5.125 3.5 0 7-1 1-1 1-4.5 1.125-3.5-.125-3.5-.125-4.5-1.125-.125-3.5-.125-3.5 0-7 1-1 1-1 4.5-1.125z" fill="#f3f3f3" transform="translate(875.5 33.875)"/><path d="m0 0c3.5.125 3.5.125 4.5 1.125.125 3.5.125 3.5 0 7-1 1-1 1-4.5 1.125-3.5-.125-3.5-.125-4.5-1.125-.125-3.5-.125-3.5 0-7 1-1 1-1 4.5-1.125z" fill="#f3f3f3" transform="translate(795.5 33.875)"/><path d="m0 0c3.5.125 3.5.125 4.5 1.125.125 3.5.125 3.5 0 7-1 1-1 1-4.5 1.125-3.5-.125-3.5-.125-4.5-1.125-.125-3.5-.125-3.5 0-7 1-1 1-1 4.5-1.125z" fill="#f3f3f3" transform="translate(699.5 33.875)"/><path d="m0 0c3.5.125 3.5.125 4.5 1.125.125 3.5.125 3.5 0 7-1 1-1 1-4.5 1.125-3.5-.125-3.5-.125-4.5-1.125-.125-3.5-.125-3.5 0-7 1-1 1-1 4.5-1.125z" fill="#f3f3f3" transform="translate(651.5 33.875)"/><path d="m0 0c3.5.125 3.5.125 4.5 1.125.125 3.5.125 3.5 0 7-1 1-1 1-4.5 1.125-3.5-.125-3.5-.125-4.5-1.125-.125-3.5-.125-3.5 0-7 1-1 1-1 4.5-1.125z" fill="#ededed" transform="translate(795.5 1.875)"/></svg>